<?xml version="1.0" encoding="utf-8"?>
<!-- Generator: Adobe Illustrator 17.1.0, SVG Export Plug-In . SVG Version: 6.00 Build 0)  -->
<!DOCTYPE svg PUBLIC "-//W3C//DTD SVG 1.1//EN" "http://www.w3.org/Graphics/SVG/1.1/DTD/svg11.dtd">
<svg version="1.1" id="Layer_1" xmlns="http://www.w3.org/2000/svg" xmlns:xlink="http://www.w3.org/1999/xlink" x="0px" y="0px"
	 viewBox="0 0 200 80" enable-background="new 0 0 200 80" xml:space="preserve">
<g>
	<path fill="#C4CC1F" d="M301.5,109.3v29c0,10.4-4.6,19.4-15.1,19.4h-21.9V90h21.9c6.9,0,12.6,4.7,14.1,11.2
		C301.1,103.8,301.5,106.5,301.5,109.3z M283.9,148.1c4.8,0,6.1-4.3,6.1-9.7v-29c0-5.4-1.3-9.7-6.1-9.7h-7.3v48.4H283.9z"/>
	<path fill="#C4CC1F" d="M337.6,142h-11.7l-2.3,15.8h-11.4L326.1,90h12.1l13.9,67.8H340L337.6,142z M335.7,132.2l-3.7-24.3h-0.3
		l-3.8,24.3H335.7z"/>
	<path fill="#C4CC1F" d="M382,157.8h-11.7v-26.3L356.2,90H368l8.2,32.7h0.2l7.8-32.7h11.9L382,131.4V157.8z"/>
	<path fill="#C4CC1F" d="M445.8,138.4c0,10.9-6.4,19.4-18,19.4h-18V90h15.7c11.2,0,17.6,6.3,17.6,17c0,5.7-2.6,12.1-7.6,14.1
		C441.7,123.9,445.8,129,445.8,138.4z M421.8,115.7h0.6c8.6,0,10.1-1.8,10.1-8.3c0-4.8-1.8-7.7-6.1-7.7h-4.6V115.7z M425.9,148.1
		c4.8,0,8.3-4.3,8.3-9.7c0-7.3-2.2-12.4-10-12.4h-2.4v22.1H425.9z"/>
	<path fill="#C4CC1F" d="M486.7,157.8l-11.5-27.3c-1.6,0-3.4,0-3.9,0v27.3h-12V90h20.2c11.6,0,17.1,8.5,17.1,19.4
		c0,10.1-4.4,16.6-10.2,19.5l12.8,29H486.7z M471.3,120.2h3.9c7.8,0,10-1,10-10.8c0-5.4-1.3-9.7-6-9.7h-7.8V120.2z"/>
	<path fill="#C4CC1F" d="M523.7,99.7v16.7H536v9.7h-12.3v22.1h18.5v9.7h-30.6V90h29.2v9.7H523.7z"/>
	<path fill="#C4CC1F" d="M579,142h-11.7l-2.3,15.8h-11.4L567.5,90h12.1l13.9,67.8h-12.1L579,142z M577.1,132.2l-3.7-24.3h-0.3
		l-3.8,24.3H577.1z"/>
	<path fill="#C4CC1F" d="M620,131.7h-0.6l-0.3,0.7v25.4h-12.1V90h12.1v24.2h0.2L631.3,90h11.4l-16.4,30.3l20,37.5h-13.9L620,131.7z"
		/>
	<path fill="#C4CC1F" d="M670.8,99.7v16.7h12.3v9.7h-12.3v22.1h18.5v9.7h-30.6V90h29.2v9.7H670.8z"/>
	<path fill="#C4CC1F" d="M730.2,157.8l-11.5-27.3c-1.6,0-3.4,0-3.9,0v27.3h-12V90h20.2c11.6,0,17.1,8.5,17.1,19.4
		c0,10.1-4.4,16.6-10.2,19.5l12.8,29H730.2z M714.8,120.2h3.9c7.8,0,10-1,10-10.8c0-5.4-1.3-9.7-6-9.7h-7.8V120.2z"/>
</g>
<g>
	<path fill="#C4CC1F" d="M406.9,40.9c-0.4-51.3,42.5-95.1,93-96.1c55.6-1.1,98.9,43,99.3,95.3c0,3-0.1,5.9-0.3,8.8h15.8
		c0.2-2.8,0.3-5.6,0.3-8.5c0.1-60.9-50.4-111.2-111.6-111.3c-62.1,0-112.3,50.2-112.2,112.2c0,2.5,0.1,5.1,0.3,7.6h15.9
		C407,46.2,406.9,43.6,406.9,40.9z"/>
	<path fill="#C4CC1F" d="M616.7-61.7c18.4-18.3,36.8-36.7,55.1-55.2c1.5-1.6,2.4-3.8,4.1-6.5c-2-2.4-3.5-5.1-5.7-6.6
		c-3.4-2.2-6.7-0.7-9.4,2c-18.4,18.4-36.8,36.7-55.2,55.1c-3.8,3.8-3.8,8.8-0.5,12C608.4-57.8,613-58,616.7-61.7z"/>
	<path fill="#C4CC1F" d="M361.4-89.4c9.3,9.3,18.4,18.8,28.1,27.7c2,1.9,6.2,2.7,8.9,2.1c2.2-0.5,3.8-3.9,5.7-6.1
		c-1.4-2.8-1.9-5-3.3-6.4c-18.6-18.8-37.3-37.6-56.3-56.1c-1.8-1.7-6-2.5-8.5-1.7c-5.9,1.8-6.6,8.4-1.8,13.3
		C343.3-107.5,352.4-98.5,361.4-89.4z"/>
	<path fill="#C4CC1F" d="M503.2-103.2c4.7-0.2,7.6-3.9,7.6-9.8c0-12.7,0-25.3,0-38c0-12.7,0-25.3,0-38c0-6.3-3.1-10-8.1-9.8
		c-4.7,0.2-7.6,3.8-7.6,9.8c0,25.3,0,50.6,0,76C495.1-106.7,498.3-103,503.2-103.2z"/>
	<path fill="#C4CC1F" d="M311,48.9c12.7,0,25.3,0,38,0c6,0,9.7-3,9.8-7.7c0.1-5-3.5-8-9.9-8c-25.3,0-50.6,0-76,0c-6,0-9.7,3-9.8,7.7
		c-0.1,5,3.6,8,9.9,8.1C285.7,48.9,298.4,48.9,311,48.9z"/>
	<path fill="#C4CC1F" d="M647.2,41.3c0.1,4.7,3.8,7.6,9.8,7.6c12.7,0,25.3,0,38,0c12.8,0,25.7,0,38.5,0c5.6,0,9.2-3.1,9.3-7.6
		c0.2-4.7-3.6-8.1-9.3-8.1c-25.5-0.1-51-0.1-76.5,0C650.7,33.1,647,36.4,647.2,41.3z"/>
</g>
<g>
	<path fill="#C4CC1F" d="M445.9,31.6c5.1-5.1,10.2-10.2,15.4-15.3c1.6-1.6,3.1-3.2,4.7-4.8c6.7,6.8,13.4,13.5,20.1,20.2
		c18.7-18.7,37.2-37.2,55.8-55.8c2.2,2.2,4.3,4.3,6.3,6.4c4.5,4.5,8.9,8.9,13.4,13.4c0.2,0.2,0.3,0.3,0.5,0.4c0,0.1,0,0.2,0,0.2
		c-0.3,0.3-0.6,0.5-0.9,0.8c-24.6,24.6-49.2,49.2-73.8,73.8c-0.3,0.3-0.6,0.7-1,1.2c-1.9-2-3.7-3.8-5.5-5.6
		c-11.4-11.5-22.9-22.9-34.3-34.3c-0.2-0.2-0.4-0.3-0.6-0.5C445.9,31.7,445.9,31.7,445.9,31.6z"/>
</g>
</svg>
